Coordinates
version=1
nRows=37
nColumns=38
inDegrees=no

Units are S.I. units (second, meters, Newtons, ...)
If the header above contains a line with 'inDegrees', this indicates whether rotational values are in degrees (yes) or radians (no).

endheader
time	pelvis_tilt	pelvis_list	pelvis_rotation	pelvis_tx	pelvis_ty	pelvis_tz	hip_flexion_r	hip_adduction_r	hip_rotation_r	knee_angle_r	ankle_angle_r	subtalar_angle_r	mtp_angle_r	hip_flexion_l	hip_adduction_l	hip_rotation_l	knee_angle_l	ankle_angle_l	subtalar_angle_l	mtp_angle_l	lumbar_extension	lumbar_bending	lumbar_rotation	arm_flex_r	arm_add_r	arm_rot_r	elbow_flex_r	pro_sup_r	wrist_flex_r	wrist_dev_r	arm_flex_l	arm_add_l	arm_rot_l	elbow_flex_l	pro_sup_l	wrist_flex_l	wrist_dev_l
0	2.29779	1.40437	-0.644713	0.614418	-0.542987	0.927257	0.240032	0.0454488	-0.235497	0.378471	-0.410791	0	0	-0.304618	-0.252082	-0.346841	0.654841	-0.368147	0	0	-0.148465	0.164494	-0.202836	-0.176307	-0.267496	-0.158664	0.665834	0.430817	0	0	0.0467176	-0.227252	0.240685	0.814362	1.4769	0	0
0.01	2.21385	1.40502	-0.565164	0.616438	-0.532775	0.927038	0.25158	0.0540405	-0.238192	0.403113	-0.396962	0	0	-0.285452	-0.2486	-0.285423	0.676428	-0.375031	0	0	-0.135628	0.174455	-0.197008	-0.185866	-0.265843	-0.173902	0.678542	0.439262	0	0	0.034935	-0.210917	0.213185	0.803718	1.50913	0	0
0.02	2.20827	1.40035	-0.563076	0.618771	-0.522212	0.92863	0.237547	0.062177	-0.244123	0.403761	-0.393636	0	0	-0.256362	-0.260518	-0.26793	0.747627	-0.389923	0	0	-0.137876	0.179235	-0.190746	-0.190497	-0.262083	-0.185209	0.683623	0.445037	0	0	0.0267332	-0.204638	0.204461	0.795936	1.52272	0	0
0.03	2.19742	1.39721	-0.556056	0.621203	-0.511651	0.929888	0.22402	0.06994	-0.250459	0.402572	-0.388168	0	0	-0.223878	-0.271538	-0.251533	0.818766	-0.395874	0	0	-0.137723	0.183201	-0.182764	-0.197574	-0.258109	-0.198327	0.690632	0.452259	0	0	0.0193892	-0.198598	0.197976	0.787831	1.53004	0	0
0.04	2.18419	1.39592	-0.54739	0.623708	-0.501211	0.930875	0.211548	0.0771135	-0.253492	0.400059	-0.380246	0	0	-0.189042	-0.281377	-0.238254	0.88869	-0.397001	0	0	-0.136067	0.185607	-0.173415	-0.205651	-0.253858	-0.212257	0.698637	0.461911	0	0	0.0124956	-0.193893	0.194051	0.780392	1.53035	0	0
0.05	2.17898	1.396	-0.546675	0.626036	-0.491087	0.931843	0.198419	0.0826007	-0.254403	0.39656	-0.37161	0	0	-0.153461	-0.287984	-0.224264	0.957199	-0.397368	0	0	-0.135667	0.185533	-0.164041	-0.211769	-0.248916	-0.226789	0.704485	0.47381	0	0	0.00587209	-0.192629	0.195025	0.774506	1.52537	0	0
0.06	2.17794	1.39767	-0.549499	0.627996	-0.481226	0.932936	0.185018	0.0863359	-0.252934	0.391453	-0.36331	0	0	-0.11695	-0.290129	-0.207162	1.02396	-0.380642	0	0	-0.138197	0.183349	-0.167176	-0.206792	-0.266472	-0.171897	0.704406	0.422251	0	0	-0.015005	-0.184037	0.151392	0.780236	1.56763	0	0
0.07	2.20187	1.39899	-0.574984	0.629584	-0.47166	0.934557	0.166316	0.0871805	-0.255361	0.383153	-0.358912	0	0	-0.0838819	-0.288063	-0.188069	1.08523	-0.371762	0	0	-0.141756	0.180047	-0.152642	-0.215746	-0.254229	-0.210621	0.709394	0.451744	0	0	-0.0107903	-0.185095	0.171184	0.765379	1.55166	0	0
0.08	2.22925	1.39983	-0.602648	0.630844	-0.4623	0.936487	0.145648	0.0882074	-0.253237	0.370464	-0.356551	0	0	-0.051288	-0.284176	-0.169971	1.14277	-0.311561	0	0	-0.149567	0.176176	-0.156545	-0.207936	-0.262089	-0.182416	0.704904	0.428614	0	0	-0.0247727	-0.178497	0.138532	0.766652	1.5708	0	0
0.09	2.27439	1.39917	-0.64667	0.631916	-0.453149	0.938822	0.121029	0.0882957	-0.248269	0.357089	-0.352575	0	0	-0.021824	-0.279898	-0.156429	1.19339	-0.282653	0	0	-0.158684	0.171842	-0.147791	-0.209937	-0.257507	-0.195359	0.703909	0.4338	0	0	-0.0224711	-0.178637	0.14592	0.754196	1.56594	0	0
0.1	2.32182	1.39833	-0.691634	0.632793	-0.444057	0.941204	0.0943262	0.0882131	-0.240731	0.339995	-0.350729	0	0	0.00777014	-0.274418	-0.143948	1.24002	-0.244323	0	0	-0.168724	0.166776	-0.147214	-0.205757	-0.257786	-0.189724	0.69939	0.427749	0	0	-0.0275624	-0.177439	0.136293	0.74898	1.5697	0	0
0.11	2.36892	1.39784	-0.736379	0.633602	-0.43502	0.943488	0.0673995	0.0874822	-0.232909	0.321587	-0.349443	0	0	0.0374464	-0.267109	-0.132372	1.28114	-0.212588	0	0	-0.177867	0.161202	-0.147012	-0.202176	-0.257614	-0.185698	0.695544	0.422598	0	0	-0.0324434	-0.176126	0.126172	0.743188	1.57048	0	0
0.12	2.41175	1.39768	-0.778505	0.634542	-0.426032	0.945557	0.042359	0.0863705	-0.226885	0.304191	-0.34927	0	0	0.0669228	-0.25899	-0.122973	1.31585	-0.191944	0	0	-0.185797	0.155008	-0.14512	-0.199338	-0.256774	-0.183333	0.691867	0.419039	0	0	-0.0374898	-0.17633	0.119075	0.738194	1.5708	0	0
0.13	2.45339	1.3975	-0.820801	0.635581	-0.417062	0.947453	0.0180275	0.0851386	-0.220912	0.287463	-0.349234	0	0	0.0951939	-0.250329	-0.11589	1.34408	-0.175236	0	0	-0.193266	0.148368	-0.142165	-0.196688	-0.255518	-0.181843	0.688146	0.415796	0	0	-0.043432	-0.177834	0.113169	0.734998	1.5708	0	0
0.14	2.49521	1.39742	-0.864729	0.636704	-0.408139	0.949199	-0.00637147	0.0835669	-0.214306	0.2703	-0.3483	0	0	0.122117	-0.241631	-0.112466	1.36626	-0.161269	0	0	-0.200704	0.141356	-0.138421	-0.194218	-0.253954	-0.181236	0.685221	0.413066	0	0	-0.0496053	-0.179532	0.106313	0.732949	1.5708	0	0
0.15	2.5409	1.39739	-0.913871	0.637913	-0.399334	0.950803	-0.0301935	0.0808428	-0.208153	0.253413	-0.347013	0	0	0.147256	-0.232646	-0.113499	1.38255	-0.142806	0	0	-0.206728	0.133876	-0.123744	-0.199023	-0.23163	-0.246208	0.686075	0.472228	0	0	-0.0446047	-0.187229	0.133038	0.722545	1.53869	0	0
0.16	2.58475	1.3987	-0.96288	0.639145	-0.390603	0.952144	-0.0490048	0.0758644	-0.207988	0.243936	-0.346786	0	0	0.172548	-0.223057	-0.118363	1.39295	-0.133329	0	0	-0.21335	0.124928	-0.118469	-0.195602	-0.232488	-0.238617	0.682903	0.463929	0	0	-0.0520481	-0.188111	0.121503	0.722487	1.54631	0	0
0.17	2.63052	1.39992	-1.01503	0.64045	-0.381894	0.953344	-0.0671762	0.0702407	-0.206842	0.235044	-0.345599	0	0	0.195896	-0.214384	-0.127843	1.39753	-0.120984	0	0	-0.219807	0.115073	-0.112031	-0.192059	-0.233385	-0.230495	0.679171	0.458154	0	0	-0.0594695	-0.190201	0.112668	0.722972	1.55293	0	0
0.18	2.68031	1.39966	-1.07091	0.641664	-0.373232	0.954493	-0.0851229	0.0640238	-0.20507	0.229417	-0.343301	0	0	0.216395	-0.20695	-0.140699	1.39622	-0.109721	0	0	-0.227479	0.105322	-0.105661	-0.188564	-0.233737	-0.223824	0.676286	0.45382	0	0	-0.0656524	-0.19277	0.105864	0.72266	1.55762	0	0
0.19	2.73352	1.39776	-1.13004	0.642781	-0.364672	0.955599	-0.104088	0.0574195	-0.203491	0.223828	-0.340329	0	0	0.233881	-0.200206	-0.156078	1.3895	-0.0992149	0	0	-0.236577	0.0956098	-0.0997699	-0.183129	-0.232632	-0.22085	0.672397	0.446702	0	0	-0.0713896	-0.195682	0.0996189	0.72264	1.56107	0	0
0.2	2.78424	1.39451	-1.18643	0.643789	-0.356177	0.956649	-0.123677	0.0511844	-0.202419	0.217863	-0.337883	0	0	0.249419	-0.194894	-0.173559	1.37796	-0.0914445	0	0	-0.246773	0.0863934	-0.0937397	-0.178769	-0.232915	-0.215939	0.66975	0.442258	0	0	-0.0765259	-0.198823	0.0943892	0.723364	1.56273	0	0
0.21	2.83165	1.38918	-1.23914	0.644687	-0.347673	0.957677	-0.145745	0.0458109	-0.200668	0.209848	-0.335858	0	0	0.262008	-0.192109	-0.194353	1.36208	-0.0862729	0	0	-0.258567	0.0779273	-0.0879044	-0.175205	-0.234023	-0.209788	0.668615	0.439486	0	0	-0.0810621	-0.202202	0.0902406	0.724831	1.56306	0	0
0.22	2.8737	1.38142	-1.28664	0.64552	-0.339059	0.958655	-0.170488	0.0412565	-0.198523	0.200835	-0.334622	0	0	0.27075	-0.195434	-0.223918	1.34331	-0.0845914	0	0	-0.271978	0.0705402	-0.0817824	-0.172506	-0.235385	-0.204999	0.669152	0.437051	0	0	-0.0857385	-0.20572	0.0867979	0.726805	1.56394	0	0
0.23	2.9039	1.36278	-1.32727	0.646774	-0.329715	0.95988	-0.209856	0.0409221	-0.191825	0.185503	-0.335151	0	0	0.261801	-0.243355	-0.321637	1.33274	-0.104487	0	0	-0.295129	0.0664913	-0.0711327	-0.174185	-0.237043	-0.204533	0.67953	0.430852	0	0	-0.0953564	-0.208976	0.0797867	0.737088	1.5646	0	0
0.24	2.94224	1.3518	-1.36937	0.647325	-0.321315	0.960878	-0.238734	0.0357199	-0.188294	0.174164	-0.335023	0	0	0.262278	-0.243078	-0.350865	1.30299	-0.110058	0	0	-0.311591	0.0603581	-0.0581269	-0.178013	-0.22418	-0.248381	0.687597	0.460397	0	0	-0.0897536	-0.216951	0.102773	0.733772	1.53822	0	0
0.25	2.97227	1.34534	-1.40223	0.647703	-0.312802	0.961404	-0.258722	0.0297355	-0.190775	0.171507	-0.328748	0	0	0.267331	-0.238194	-0.372397	1.26847	-0.109946	0	0	-0.321522	0.0539892	-0.0522884	-0.175579	-0.221431	-0.257812	0.687186	0.46487	0	0	-0.0894778	-0.221797	0.110997	0.731151	1.52622	0	0
0.26	2.99532	1.33989	-1.42802	0.647997	-0.304264	0.961682	-0.277219	0.0248929	-0.190831	0.168025	-0.329037	0	0	0.271782	-0.233687	-0.393552	1.2292	-0.111084	0	0	-0.331119	0.0484105	-0.0501666	-0.171391	-0.223611	-0.251458	0.686727	0.459186	0	0	-0.093839	-0.222758	0.101955	0.731861	1.53503	0	0
0.27	3.01527	1.33399	-1.45051	0.648183	-0.295777	0.961822	-0.295345	0.0204938	-0.190435	0.165759	-0.326625	0	0	0.273545	-0.229119	-0.415279	1.18456	-0.114884	0	0	-0.34129	0.0434109	-0.0484776	-0.166548	-0.225438	-0.246154	0.686574	0.453653	0	0	-0.098249	-0.223863	0.0936942	0.73358	1.54129	0	0
0.28	3.03189	1.32832	-1.46956	0.648279	-0.287267	0.961805	-0.312708	0.0165202	-0.18943	0.163834	-0.322622	0	0	0.273334	-0.223735	-0.43636	1.13482	-0.122488	0	0	-0.351415	0.0388758	-0.0473386	-0.162166	-0.228179	-0.238297	0.687602	0.449328	0	0	-0.10297	-0.224709	0.0845009	0.736304	1.54495	0	0
0.29	3.04448	1.32422	-1.484	0.648303	-0.278686	0.961513	-0.327382	0.0132165	-0.18904	0.163801	-0.317021	0	0	0.273085	-0.217805	-0.456288	1.08106	-0.132138	0	0	-0.359353	0.0351135	-0.0465717	-0.158075	-0.230835	-0.230232	0.688643	0.446001	0	0	-0.107812	-0.226111	0.0773758	0.738712	1.54794	0	0
0.3	3.0549	1.32185	-1.49552	0.648238	-0.270031	0.96093	-0.339353	0.0103186	-0.190377	0.166955	-0.30966	0	0	0.272759	-0.210975	-0.47536	1.02319	-0.143921	0	0	-0.365048	0.0319498	-0.0464484	-0.153118	-0.232239	-0.22484	0.688534	0.440874	0	0	-0.112599	-0.227536	0.0712867	0.740479	1.55116	0	0
0.31	3.06345	1.32107	-1.50458	0.648048	-0.261282	0.960067	-0.349525	0.00778343	-0.192018	0.171153	-0.300435	0	0	0.272238	-0.202498	-0.491459	0.961076	-0.156976	0	0	-0.368724	0.029406	-0.0469596	-0.147988	-0.232435	-0.222629	0.688293	0.434277	0	0	-0.117084	-0.228431	0.0650002	0.741688	1.55221	0	0
0.32	3.07064	1.32192	-1.51136	0.647709	-0.252472	0.958933	-0.356458	0.00522553	-0.195362	0.179211	-0.280965	0	0	0.271657	-0.191815	-0.502884	0.893924	-0.183101	0	0	-0.370279	0.0272734	-0.0477632	-0.143712	-0.231689	-0.223416	0.688219	0.433628	0	0	-0.121105	-0.230491	0.0632385	0.743101	1.5462	0	0
0.33	3.07332	1.3254	-1.51269	0.647218	-0.243516	0.957445	-0.361588	0.00441381	-0.197355	0.185083	-0.267763	0	0	0.272343	-0.17924	-0.506971	0.822724	-0.201345	0	0	-0.368014	0.0266672	-0.0467269	-0.1425	-0.23043	-0.228516	0.689322	0.438046	0	0	-0.122496	-0.23331	0.0681201	0.741444	1.53811	0	0
0.34	3.0715	1.33075	-1.50868	0.646579	-0.234461	0.955636	-0.364469	0.00483188	-0.200251	0.192087	-0.255351	0	0	0.273589	-0.16474	-0.502164	0.747639	-0.217127	0	0	-0.36328	0.0273924	-0.0460092	-0.142604	-0.229977	-0.232643	0.691397	0.444178	0	0	-0.123642	-0.236173	0.0748099	0.739309	1.52874	0	0
0.35	3.06348	1.33716	-1.49809	0.645805	-0.225347	0.95363	-0.365298	0.00587166	-0.201861	0.198948	-0.244767	0	0	0.274287	-0.149535	-0.489173	0.670248	-0.227701	0	0	-0.356918	0.0295825	-0.0452038	-0.143504	-0.22957	-0.238002	0.693935	0.45194	0	0	-0.124561	-0.239461	0.0845124	0.737217	1.51508	0	0
0.36	3.05093	1.34292	-1.48225	0.644884	-0.216173	0.95155	-0.367497	0.00833372	-0.20392	0.203578	-0.241714	0	0	0.271997	-0.133609	-0.467805	0.591339	-0.236077	0	0	-0.35274	0.0326608	-0.0505471	-0.139006	-0.232216	-0.230406	0.694313	0.441675	0	0	-0.132253	-0.237384	0.0698373	0.741063	1.52744	0	0
